<svg width="58" height="58" viewBox="0 0 58 58" fill="none" xmlns="http://www.w3.org/2000/svg">
<circle cx="29" cy="29" r="28.5" fill="#53678D" stroke="#53678D"/>
<circle cx="27.5" cy="30.5" r="26.5" fill="#182744"/>
<path d="M9.45894 24.1724L4.14062 17.4219L23.5412 28.2227L24.8895 27.6227L25.4139 24.7724H23.3914L22.6424 25.3725L22.942 23.8724L30.1329 20.4221L27.7359 23.4223L28.1854 27.6227L29.3839 28.2227L48.8594 17.4219L43.3163 24.1724L33.2041 28.2227L39.9456 26.3476L37.0992 30.0228L31.8558 30.9229H35.1516L31.8558 33.9982H27.9607L27.8109 34.9732L30.058 45.099L28.7846 48.6993L27.3614 42.3988L28.4101 52.2246L26.4625 58L24.515 52.2246L25.5637 42.3988L23.9907 48.6993L22.8671 45.099L25.1891 34.9732L24.8895 33.9982H21.2191L17.9982 30.9229H21.369L16.0506 30.0228L12.9795 26.2726L19.4963 28.2227L9.45894 24.1724Z" fill="#53678D"/>
</svg>
